<svg xmlns="http://www.w3.org/2000/svg" viewBox="0 0 440 176" width="440" height="176" role="img" aria-label="File Analysis Service — FastAPI, YARA, Celery, CAPE sandbox. Private repository.">
  <defs>
    <clipPath id="c7"><rect x="0.5" y="0.5" width="439" height="175" rx="12"/></clipPath>
    <pattern id="p7" width="26" height="26" patternUnits="userSpaceOnUse">
      <circle cx="1" cy="1" r="1" fill="#2a323d" fill-opacity="0.4"/>
    </pattern>
  </defs>
  <g clip-path="url(#c7)">
    <rect width="440" height="176" fill="#0a0c10"/>
    <rect width="440" height="176" fill="url(#p7)"/>
    <circle cx="416" cy="0" r="92" fill="#9b8bc4" fill-opacity="0.055"/>
    <rect x="0" y="0" width="3" height="176" fill="#9b8bc4"/>
  </g>
  <rect x="0.5" y="0.5" width="439" height="175" rx="12" fill="none" stroke="#1e242c"/>

  <g font-family="ui-monospace, SFMono-Regular, 'SF Mono', Menlo, Consolas, monospace">
    <circle cx="382" cy="26" r="3.5" fill="#d4a259"/>
    <text x="428" y="30" font-size="9" fill="#6d7683" text-anchor="end">PRIVATE</text>

    <text x="24" y="46" font-size="15.5" font-weight="700" fill="#e8edf4">File Analysis Service</text>
    <text x="24" y="64" font-size="9.5" fill="#9b8bc4" letter-spacing="1.1">SECURITY · ASYNC PIPELINE</text>

    <text x="24" y="92" font-size="10.5" fill="#8792a2">Scans uploads with YARA, parses PE headers, submits to a</text>
    <text x="24" y="109" font-size="10.5" fill="#8792a2">CAPE sandbox through a Celery queue. A bare except was</text>
    <text x="24" y="126" font-size="10.5" fill="#8792a2">making broken rules report every sample as clean.</text>

    <g font-size="9" fill="#8792a2">
      <rect x="24"  y="142" width="62" height="20" rx="10" fill="#12151b" stroke="#232a33"/><text x="55"  y="155.5" text-anchor="middle">FastAPI</text>
      <rect x="92"  y="142" width="48" height="20" rx="10" fill="#12151b" stroke="#232a33"/><text x="116" y="155.5" text-anchor="middle">YARA</text>
      <rect x="146" y="142" width="54" height="20" rx="10" fill="#12151b" stroke="#232a33"/><text x="173" y="155.5" text-anchor="middle">Celery</text>
      <rect x="206" y="142" width="48" height="20" rx="10" fill="#12151b" stroke="#232a33"/><text x="230" y="155.5" text-anchor="middle">CAPE</text>
      <rect x="260" y="142" width="54" height="20" rx="10" fill="#12151b" stroke="#232a33"/><text x="287" y="155.5" text-anchor="middle">Docker</text>
    </g>
  </g>
</svg>
